
<svg width="464" height="480" viewBox="0 0 464 480" fill="none" xmlns="http://www.w3.org/2000/svg">
  <path d="M7.13867 234.175C7.13867 359.852 107.948 462.925 231.952 462.925C355.956 462.925 457.657 360.756 457.657 235.079C457.657 108.498 356.848 6.32886 232.844 6.32886C108.84 6.32886 7.13867 108.498 7.13867 234.175Z" fill="#FE2062"/>
  <path d="M232.842 469.254C170.394 469.254 113.299 444.842 68.6929 400.539C24.0871 356.236 0 297.466 0 234.175C0 170.885 24.0871 112.115 67.8008 68.7155C111.514 23.5079 170.394 0 231.95 0C293.506 0 351.493 24.4121 396.099 68.7155C440.705 113.019 463.9 172.693 463.9 235.079C463.9 297.466 439.813 356.236 395.207 400.539C352.386 444.842 294.398 469.254 232.842 469.254ZM232.842 12.6581C111.514 12.6581 12.4896 112.115 12.4896 234.175C12.4896 356.236 110.622 455.692 231.058 455.692C351.493 455.692 449.626 356.236 449.626 234.175C449.626 112.115 353.278 12.6581 232.842 12.6581Z" fill="white"/>
  <path d="M77.6118 294.752C77.6118 297.464 79.3961 299.273 82.0724 299.273C84.7488 299.273 86.533 297.464 86.533 294.752C86.533 292.04 84.7488 290.231 82.0724 290.231C79.3961 290.231 77.6118 292.04 77.6118 294.752ZM105.267 301.985C105.267 304.698 107.944 307.41 110.62 307.41C113.296 307.41 115.973 304.698 115.973 301.985C115.973 299.273 113.296 296.56 110.62 296.56C107.944 296.56 105.267 299.273 105.267 301.985ZM42.8193 262.203C42.8193 264.011 43.7114 264.915 45.4957 264.915C47.2799 264.915 48.172 264.011 48.172 262.203C48.172 260.394 47.2799 259.49 45.4957 259.49C44.6036 259.49 42.8193 260.394 42.8193 262.203ZM50.8484 125.676C50.8484 127.484 52.6326 129.292 54.4168 129.292C56.2011 129.292 57.9853 127.484 57.9853 125.676C57.9853 123.867 56.2011 122.059 54.4168 122.059C52.6326 122.059 50.8484 123.867 50.8484 125.676ZM134.707 368.892C134.707 371.605 136.491 373.413 139.168 373.413C141.844 373.413 143.628 371.605 143.628 368.892C143.628 366.18 141.844 364.372 139.168 364.372C136.491 364.372 134.707 366.18 134.707 368.892ZM284.583 401.442C284.583 404.154 286.367 405.963 289.043 405.963C291.72 405.963 293.504 404.154 293.504 401.442C293.504 398.729 291.72 396.921 289.043 396.921C287.259 396.921 284.583 398.729 284.583 401.442ZM395.205 329.11C395.205 330.918 396.989 332.726 398.773 332.726C400.558 332.726 402.342 330.918 402.342 329.11C402.342 327.301 400.558 325.493 398.773 325.493C396.989 325.493 395.205 327.301 395.205 329.11ZM401.45 208.858C401.45 210.666 402.342 211.57 404.126 211.57C405.91 211.57 406.802 210.666 406.802 208.858C406.802 207.049 405.91 206.145 404.126 206.145C402.342 206.145 401.45 207.049 401.45 208.858ZM342.57 226.941C345.246 226.941 347.031 228.749 347.031 231.461C347.031 234.174 345.246 235.982 342.57 235.982C339.894 235.982 338.11 234.174 338.11 231.461C339.002 228.749 340.786 226.941 342.57 226.941ZM305.993 163.65C308.67 163.65 310.454 165.458 310.454 168.171C310.454 170.883 308.67 172.692 305.993 172.692C303.317 172.692 301.533 170.883 301.533 168.171C300.641 165.458 303.317 163.65 305.993 163.65ZM281.906 151.896C284.583 151.896 286.367 153.704 286.367 156.417C286.367 159.129 284.583 160.938 281.906 160.938C279.23 160.938 277.446 159.129 277.446 156.417C277.446 153.704 279.23 151.896 281.906 151.896ZM267.632 118.442C269.417 118.442 270.309 119.347 270.309 121.155C270.309 122.963 269.417 123.867 267.632 123.867C265.848 123.867 264.956 122.963 264.956 121.155C264.956 120.251 265.848 118.442 267.632 118.442ZM251.574 109.401C252.466 109.401 253.359 110.305 253.359 111.209C253.359 112.113 252.466 113.018 251.574 113.018C250.682 113.018 249.79 112.113 249.79 111.209C249.79 110.305 250.682 109.401 251.574 109.401ZM275.661 103.072C277.446 103.072 279.23 104.88 279.23 106.689C279.23 108.497 277.446 110.305 275.661 110.305C273.877 110.305 272.093 108.497 272.093 106.689C272.093 104.88 273.877 103.072 275.661 103.072ZM350.599 61.481C351.491 61.481 352.383 62.3851 352.383 63.2893C352.383 64.1934 351.491 65.0976 350.599 65.0976C349.707 65.0976 347.923 66.0017 347.923 64.1934C347.923 62.3851 348.815 61.481 350.599 61.481ZM357.736 125.676C359.52 125.676 361.305 127.484 361.305 129.292C361.305 131.101 359.52 132.909 357.736 132.909C355.952 132.909 354.168 131.101 354.168 129.292C354.168 127.484 355.952 125.676 357.736 125.676ZM334.541 157.321C336.325 157.321 338.11 159.129 338.11 160.938C338.11 162.746 336.325 163.65 334.541 163.65C332.757 163.65 330.973 161.842 330.973 160.033C330.973 158.225 332.757 157.321 334.541 157.321ZM170.392 152.8C171.284 152.8 172.176 153.704 172.176 154.609C172.176 155.513 171.284 156.417 170.392 156.417C169.5 156.417 168.608 155.513 168.608 154.609C168.608 153.704 169.5 152.8 170.392 152.8ZM183.774 140.142C186.45 140.142 188.234 141.95 188.234 144.663C188.234 147.375 186.45 149.184 183.774 149.184C181.097 149.184 179.313 147.375 179.313 144.663C179.313 141.95 181.989 140.142 183.774 140.142ZM185.558 254.969C187.342 254.969 189.126 256.778 189.126 258.586C189.126 260.394 187.342 262.203 185.558 262.203C183.774 262.203 181.989 260.394 181.989 258.586C181.989 256.778 183.774 254.969 185.558 254.969ZM272.093 206.145C273.877 206.145 275.661 207.953 275.661 209.762C275.661 211.57 273.877 213.378 272.093 213.378C270.309 213.378 268.525 211.57 268.525 209.762C268.525 207.953 270.309 206.145 272.093 206.145ZM297.072 212.474C298.856 212.474 300.641 214.283 300.641 216.091C300.641 217.899 298.856 219.707 297.072 219.707C295.288 219.707 293.504 217.899 293.504 216.091C292.612 214.283 295.288 212.474 297.072 212.474ZM123.11 207.049C124.894 207.049 125.786 207.953 125.786 209.762C125.786 211.57 124.894 212.474 123.11 212.474C121.325 212.474 120.433 211.57 120.433 209.762C121.325 208.858 122.218 207.049 123.11 207.049ZM117.757 228.749C119.541 228.749 121.325 230.557 121.325 232.366C121.325 234.174 119.541 235.982 117.757 235.982C115.973 235.982 114.189 234.174 114.189 232.366C114.189 230.557 115.081 228.749 117.757 228.749ZM283.691 349.905C285.475 349.905 287.259 351.714 287.259 353.522C287.259 355.33 285.475 357.138 283.691 357.138C281.906 357.138 280.122 355.33 280.122 353.522C280.122 351.714 282.798 349.905 283.691 349.905ZM322.944 339.96C325.62 339.96 327.404 341.768 327.404 344.48C327.404 347.193 325.62 349.001 322.944 349.001C320.267 349.001 318.483 347.193 318.483 344.48C317.591 341.768 320.267 339.96 322.944 339.96Z" fill="white"/>
  <path d="M94.5708 120.253C94.5708 120.253 106.168 49.7289 168.616 84.9908C168.616 84.9908 304.218 162.748 371.127 303.795C371.127 303.795 414.84 377.032 326.521 387.881C326.521 387.881 231.064 399.635 151.666 324.591C150.774 325.495 58.8862 239.601 94.5708 120.253Z" fill="white"/>
  <path d="M124.9 88.6053C142.742 74.1389 208.759 121.155 275.668 193.487C342.576 265.819 381.829 337.247 365.771 352.617C349.713 367.988 280.128 320.068 213.22 247.736C146.311 175.404 107.058 103.976 124.9 88.6053Z" fill="#FE2062"/>
  <path d="M50.8564 472.871L157.91 374.319C157.91 374.319 164.155 365.277 173.968 375.223L281.022 472.871H50.8564Z" fill="white"/>
  <path d="M298.863 479.2H33.9043L152.556 369.798C153.448 367.989 157.016 364.373 162.369 363.469C167.722 362.565 172.182 365.277 177.535 369.798L298.863 479.2ZM164.153 378.839L163.261 379.743L67.8047 465.638H264.962L170.398 379.743C167.722 377.935 165.937 377.935 165.937 377.935C165.045 377.031 164.153 378.839 164.153 378.839ZM340.792 145.568C337.224 145.568 333.655 142.856 332.763 138.335C330.087 109.402 306.892 108.498 306 108.498C301.539 108.498 297.97 104.881 298.863 100.361C298.863 95.84 302.431 92.2234 306.892 93.1275C319.381 94.0317 345.253 103.977 348.821 137.431C348.821 141.048 345.253 144.664 340.792 145.568Z" fill="white"/>
  <path d="M384.509 156.418C380.048 156.418 376.48 152.801 376.48 149.185C372.019 63.2905 296.189 63.2905 292.621 64.1946C288.16 64.1946 284.592 60.578 284.592 56.0573C284.592 51.5365 288.16 47.9199 292.621 47.9199C293.513 47.9199 316.708 47.9199 340.795 59.6739C363.098 70.5237 389.861 95.8399 393.43 150.089C392.538 152.801 388.969 156.418 384.509 156.418Z" fill="white"/>
</svg>

